<?xml version="1.0" encoding="UTF-8"?>
<svg width="40px" height="38px" viewBox="0 0 40 38" version="1.1" xmlns="http://www.w3.org/2000/svg" xmlns:xlink="http://www.w3.org/1999/xlink">
    <!-- Generator: Sketch 52.6 (67491) - http://www.bohemiancoding.com/sketch -->
    <title>star-emoji/3-star/default</title>
    <desc>Created with Sketch.</desc>
    <defs>
        <polygon id="path-1" points="0 37.6265271 0 0.0623318566 39.9144503 0.0623318566 39.9144503 37.6265271"></polygon>
    </defs>
    <g id="Page-1" stroke="none" stroke-width="1" fill="none" fill-rule="evenodd">
        <g id="Desktop" transform="translate(-586.000000, -350.000000)">
            <g id="Group-2" transform="translate(163.000000, 74.000000)">
                <g id="Stacked-Group" transform="translate(183.000000, 276.000000)">
                    <g id="star-emoji/3-star/default" transform="translate(240.000000, 0.000000)">
                        <g id="Group-3" transform="translate(0.000000, 0.041038)">
                            <mask id="mask-2" fill="white">
                                <use xlink:href="#path-1"></use>
                            </mask>
                            <g id="Clip-2"></g>
                            <path d="M20.7912565,0.574114646 L26.4541885,11.9015599 L39.1171204,13.7179702 C39.8799476,13.8273352 40.184555,14.7528031 39.6326178,15.2840193 L30.4696859,24.1011344 L32.6327225,36.5511733 C32.7629843,37.301223 31.9656021,37.8731669 31.2831937,37.5190227 L19.9572251,31.6409115 L8.63125654,37.5190227 C7.94884817,37.8731669 7.15146597,37.301223 7.28172775,36.5511733 L9.44486911,24.1011344 L0.281832461,15.2840193 C-0.270104712,14.7528031 0.0345026178,13.8273352 0.797329843,13.7179702 L13.4601571,11.9015599 L19.1231937,0.574114646 C19.4643455,-0.10833132 20.45,-0.10833132 20.7912565,0.574114646" id="Fill-1" fill="#EBB82F" mask="url(#mask-2)"></path>
                        </g>
                        <g id="Group-8" transform="translate(2.931937, 2.935386)" fill="#FFFFFF" opacity="0.5">
                            <path d="M0.494596859,12.7614295 C0.267057592,12.7614295 0.0686282723,12.5968651 0.0350157068,12.3683149 C-0.0022617801,12.1176437 0.173968586,11.8845453 0.428314136,11.8482626 L11.4547016,10.2661912 L16.4328168,0.309116391 C16.5463246,0.0813932071 16.8242304,-0.0118461538 17.0553298,0.100619949 C17.2855916,0.212775943 17.3805654,0.487945765 17.2666387,0.715255471 L12.1804607,10.8888895 C12.1128168,11.0243037 11.9820314,11.11837 11.8303037,11.1398709 L0.56182199,12.7564677 C0.539099476,12.7600856 0.516795812,12.7614295 0.494596859,12.7614295" id="Fill-4"></path>
                            <path d="M6.56253403,32.2444245 C6.53667016,32.2444245 6.50986387,32.2421504 6.48358115,32.2377055 C6.23017801,32.1951172 6.06033508,31.9575739 6.10389529,31.707833 L7.64201047,22.855779 C7.68515183,22.6060381 7.92536126,22.4383727 8.1787644,22.4809609 C8.43216754,22.5235492 8.60201047,22.7610925 8.55845026,23.0108334 L7.02033508,31.8628874 C6.98169634,32.0866825 6.78504712,32.2444245 6.56253403,32.2444245" id="Fill-6"></path>
                        </g>
                    </g>
                </g>
            </g>
        </g>
    </g>
</svg>